<?xml version="1.0" encoding="utf-8"?>
<!-- Generate more at customizr.net -->
<!DOCTYPE svg PUBLIC "-//W3C//DTD SVG 1.1//EN" "http://www.w3.org/Graphics/SVG/1.1/DTD/svg11.dtd">
<svg id="android" class="custom-icon" version="1.1" xmlns="http://www.w3.org/2000/svg" xmlns:xlink="http://www.w3.org/1999/xlink" viewBox="0 0 100 100" style="height: 100px; width: 100px;"><circle class="outer-shape" cx="50" cy="50" r="48" style="opacity: 1; fill: rgb(46, 139, 87);"></circle>
	<path class="inner-shape" style="opacity: 1; fill: rgb(247, 247, 247);" transform="translate(25,25) scale(0.5)" d="M86.75,31.625c-3.369,0-6.125,2.757-6.125,6.125v24.5c0,3.369,2.756,6.125,6.125,6.125c3.369,0,6.125-2.756,6.125-6.125 v-24.5C92.875,34.381,90.118,31.625,86.75,31.625z M13.25,31.625c-3.369,0-6.125,2.757-6.125,6.125v24.5 c0,3.369,2.757,6.125,6.125,6.125s6.125-2.756,6.125-6.125v-24.5C19.375,34.381,16.618,31.625,13.25,31.625z M22.438,71.437 c0,5.074,4.113,9.188,9.187,9.188h3.062v12.25c0,3.369,2.757,6.125,6.125,6.125c3.368,0,6.125-2.756,6.125-6.125v-12.25h6.125v12.25 c0,3.369,2.756,6.125,6.125,6.125c3.369,0,6.125-2.756,6.125-6.125v-12.25h3.062c5.074,0,9.187-4.113,9.187-9.188V37.75H22.438 V71.437z M61.35,9.565l3.876-7.446c0.193-0.373,0.048-0.838-0.325-1.033c-0.373-0.195-0.838-0.048-1.034,0.325L59.933,8.97 C56.852,7.779,53.503,7.125,50,7.125S43.149,7.78,40.067,8.97l-3.935-7.559c-0.194-0.373-0.659-0.52-1.033-0.325 s-0.52,0.659-0.325,1.033l3.876,7.446c-8.674,3.926-14.953,12.21-16.042,22.06h54.784C76.303,21.775,70.025,13.49,61.35,9.565 L61.35,9.565z M37.75,26.878c-2.453,0-4.44-1.988-4.44-4.44s1.988-4.44,4.44-4.44s4.44,1.988,4.44,4.44 C42.19,24.89,40.202,26.878,37.75,26.878z M62.25,26.878c-2.453,0-4.44-1.988-4.44-4.44s1.988-4.44,4.44-4.44s4.44,1.988,4.44,4.44 C66.69,24.89,64.702,26.878,62.25,26.878z"></path>
</svg>

