<?xml version="1.0" encoding="utf-8"?>
<!-- Generate more at customizr.net -->
<!DOCTYPE svg PUBLIC "-//W3C//DTD SVG 1.1//EN" "http://www.w3.org/Graphics/SVG/1.1/DTD/svg11.dtd">
<svg id="apple" class="custom-icon" version="1.1" xmlns="http://www.w3.org/2000/svg" xmlns:xlink="http://www.w3.org/1999/xlink" viewBox="0 0 100 100" style="height: 100px; width: 100px;"><circle class="outer-shape" cx="50" cy="50" r="48" style="opacity: 1; fill: rgb(46, 139, 87);"></circle>
	<path class="inner-shape" style="opacity: 1; fill: rgb(247, 247, 247);" transform="translate(25,25) scale(0.5)" d="M76.749,53.071c-0.123-12.411,10.122-18.363,10.579-18.659c-5.757-8.424-14.724-9.578-17.919-9.711 c-7.631-0.772-14.891,4.493-18.764,4.493c-3.863,0-9.84-4.379-16.169-4.264c-8.318,0.123-15.988,4.836-20.271,12.286 c-8.643,14.997-2.213,37.214,6.21,49.376c4.116,5.954,9.024,12.64,15.468,12.401c6.205-0.248,8.553-4.015,16.054-4.015 c7.503,0,9.611,4.015,16.179,3.893c6.678-0.124,10.908-6.067,14.996-12.039c4.727-6.907,6.673-13.594,6.788-13.937 C89.752,72.827,76.879,67.896,76.749,53.071z M64.409,16.649C67.829,12.5,70.138,6.743,69.508,1 c-4.926,0.201-10.899,3.282-14.434,7.422c-3.172,3.673-5.948,9.534-5.204,15.163C55.37,24.013,60.985,20.789,64.409,16.649 L64.409,16.649z"></path>
</svg>

