<?xml version="1.0" encoding="utf-8"?>
<!-- Generate more at customizr.net -->
<!DOCTYPE svg PUBLIC "-//W3C//DTD SVG 1.1//EN" "http://www.w3.org/Graphics/SVG/1.1/DTD/svg11.dtd">
<svg id="blogger" class="custom-icon" version="1.1" xmlns="http://www.w3.org/2000/svg" xmlns:xlink="http://www.w3.org/1999/xlink" viewBox="0 0 100 100" style="height: 100px; width: 100px;"><circle class="outer-shape" cx="50" cy="50" r="48" style="opacity: 1; fill: rgb(46, 139, 87);"></circle>
	<path class="inner-shape" style="opacity: 1; fill: rgb(247, 247, 247);" transform="translate(25,25) scale(0.5)" d="M82.668,1H17.332C8.312,1,1,8.314,1,17.335v65.33C1,91.687,8.312,99,17.332,99h65.336C91.688,99,99,91.687,99,82.665 l0.001-65.33C99.001,8.314,91.689,1,82.668,1L82.668,1z M86.75,63.025c0,13.11-10.669,23.725-23.873,23.725H37.15 c-13.193,0-23.9-10.614-23.9-23.725v-26.04c0.009-13.111,10.707-23.734,23.9-23.734h12.046c13.202,0,23.773,9.858,23.772,22.969 c0.172,2.459,2.385,4.594,4.909,4.594h4.12c2.639,0,4.752,2.769,4.752,5.389L86.75,63.025L86.75,63.025z M68.375,62.25 c0,3.369-2.757,6.125-6.125,6.125h-24.5c-3.369,0-6.125-2.757-6.125-6.125l0,0c0-3.369,2.757-6.125,6.125-6.125h24.5 C65.619,56.125,68.375,58.881,68.375,62.25L68.375,62.25z M56.125,37.75c0,3.369-2.756,6.125-6.125,6.125H37.75 c-3.369,0-6.125-2.757-6.125-6.125l0,0c0-3.369,2.757-6.125,6.125-6.125H50C53.369,31.625,56.125,34.382,56.125,37.75L56.125,37.75z "></path>
</svg>

