<?xml version="1.0" encoding="utf-8"?>
<!-- Generate more at customizr.net -->
<!DOCTYPE svg PUBLIC "-//W3C//DTD SVG 1.1//EN" "http://www.w3.org/Graphics/SVG/1.1/DTD/svg11.dtd">
<svg id="chrome" class="custom-icon" version="1.1" xmlns="http://www.w3.org/2000/svg" xmlns:xlink="http://www.w3.org/1999/xlink" viewBox="0 0 100 100" style="height: 100px; width: 100px;"><circle class="outer-shape" cx="50" cy="50" r="48" style="opacity: 1; fill: rgb(46, 139, 87);"></circle>
	<path class="inner-shape" style="opacity: 1; fill: rgb(247, 247, 247);" transform="translate(25,25) scale(0.5)" d="M25.717,43.736l-14.024-24.29C20.672,8.204,34.493,1,49.999,1c17.938,0,33.622,9.641,42.161,24.022H52.178 c-0.718-0.062-1.445-0.096-2.179-0.096C38.335,24.926,28.506,32.931,25.717,43.736L25.717,43.736z M67.543,32.103h28.085 c2.177,5.544,3.372,11.581,3.372,17.897c0,26.876-21.639,48.695-48.444,48.994l20.04-34.71c2.821-4.055,4.479-8.98,4.479-14.284 C75.076,42.997,72.188,36.657,67.543,32.103L67.543,32.103z M32.199,50c0-9.816,7.985-17.801,17.801-17.801S67.801,40.184,67.801,50 S59.816,67.801,50,67.801S32.199,59.816,32.199,50z M56.717,74.16L42.689,98.457c-23.594-3.53-41.689-23.88-41.689-48.457 c0-8.73,2.285-16.925,6.288-24.024l20.005,34.65c4.007,8.528,12.678,14.448,22.708,14.448C52.327,75.075,54.579,74.756,56.717,74.16 L56.717,74.16z"></path>
</svg>

