<?xml version="1.0" encoding="utf-8"?>
<!-- Generate more at customizr.net -->
<!DOCTYPE svg PUBLIC "-//W3C//DTD SVG 1.1//EN" "http://www.w3.org/Graphics/SVG/1.1/DTD/svg11.dtd">
<svg id="designfloat-logo-square" class="custom-icon" version="1.1" xmlns="http://www.w3.org/2000/svg" xmlns:xlink="http://www.w3.org/1999/xlink" viewBox="0 0 100 100" style="height: 100px; width: 100px;"><circle class="outer-shape" cx="50" cy="50" r="48" style="opacity: 1; fill: rgb(46, 139, 87);"></circle>
	<path class="inner-shape" style="opacity: 1; fill: rgb(247, 247, 247);" transform="translate(25,25) scale(0.5)" d="M76.829,9.447c-3.212-1.909-6.425-3.816-9.96-5.089c-5.14-1.909-10.923-2.862-16.709-2.862 c-6.104,0-11.566,0.953-17.029,2.862c-3.534,1.273-6.746,3.179-9.64,5.089C9.998,18.034,1,32.983,1,50.157 c0,16.858,8.998,31.807,22.492,40.394c2.893,1.909,6.105,3.818,9.64,5.091c5.463,1.907,10.925,2.862,17.029,2.862 c5.785,0,11.567-0.955,16.709-2.862c3.534-1.273,6.748-3.182,9.96-5.091C90.324,81.964,99,67.017,99,50.157 C99.001,32.983,90.324,18.034,76.829,9.447z M59.801,6.267c2.572,0.634,4.82,1.271,7.068,2.226 c3.534,1.589,7.068,3.498,9.96,5.406c8.355,6.043,14.461,14.951,17.029,25.129H75.866c-1.928-4.454-4.82-8.269-8.997-11.132 c-1.928-1.591-4.498-2.864-7.068-4.135C59.801,23.761,59.801,6.267,59.801,6.267z M23.492,13.898 c2.893-1.907,6.105-3.816,9.64-5.406c2.249-0.955,4.821-1.591,7.391-2.226V23.76c-2.572,0.953-5.143,2.543-7.391,4.135 c-3.855,2.862-6.746,6.678-8.674,11.132H6.464C9.034,28.849,15.14,19.943,23.492,13.898z M40.523,93.733 c-2.572-0.636-5.143-1.272-7.391-2.226c-3.534-1.591-6.746-3.498-9.64-5.407C14.497,79.419,7.749,69.56,5.821,58.11h17.352 c0,0.317,0.321,0.317,0.321,0.317c1.608,5.725,5.142,10.178,9.64,13.677c2.249,1.589,4.821,3.182,7.391,4.135v17.493H40.523z M33.132,67.017c-4.497-4.135-7.389-10.178-7.389-16.859c0-6.998,2.891-13.04,7.389-17.174c4.498-4.454,10.283-6.998,17.029-6.998 c6.425,0,12.531,2.543,16.709,6.998c4.497,4.135,7.389,10.176,7.389,17.174c0,6.68-2.892,12.724-7.389,16.859 c-4.177,4.452-10.283,6.998-16.709,6.998C43.415,74.013,37.63,71.468,33.132,67.017z M76.829,86.1 c-2.891,1.909-6.425,3.816-9.96,5.407c-2.249,0.953-4.498,1.589-7.068,2.226V76.24c2.572-0.953,5.14-2.545,7.068-4.135 c4.82-3.498,8.032-7.953,9.96-13.677V58.11h17.672C92.252,69.56,85.827,79.419,76.829,86.1z"></path>
</svg>

