<?xml version="1.0" encoding="utf-8"?>
<!-- Generate more at customizr.net -->
<!DOCTYPE svg PUBLIC "-//W3C//DTD SVG 1.1//EN" "http://www.w3.org/Graphics/SVG/1.1/DTD/svg11.dtd">
<svg id="deviantart" class="custom-icon" version="1.1" xmlns="http://www.w3.org/2000/svg" xmlns:xlink="http://www.w3.org/1999/xlink" viewBox="0 0 100 100" style="height: 100px; width: 100px;"><circle class="outer-shape" cx="50" cy="50" r="48" style="opacity: 1; fill: rgb(46, 139, 87);"></circle>
	<path class="inner-shape" style="opacity: 1; fill: rgb(247, 247, 247);" transform="translate(25,25) scale(0.5)" d="M83.852,45.244c-17.586-9.709-35.468-8.817-35.468-8.817v-8.322H35.046v9.511c0,0-9.682,0.694-22.624,9.411 C-0.52,55.746,1.061,71.895,1.061,71.895h47.718V44.947c0,0,11.658-1.288,21.537,4.26s9.484,12.384,9.484,12.384H64.488V49.208 c0,0,0.395-0.298-3.062-1.189c-3.457-0.892-10.571-1.189-10.571-1.189v25.065h48.015C98.868,71.895,101.438,54.954,83.852,45.244z M35.146,61.888H19.634c0,0-0.395-5.251,4.643-10.303s10.867-5.845,10.867-5.845v16.148H35.146z"></path>
</svg>

