<?xml version="1.0" encoding="utf-8"?>
<!-- Generate more at customizr.net -->
<!DOCTYPE svg PUBLIC "-//W3C//DTD SVG 1.1//EN" "http://www.w3.org/Graphics/SVG/1.1/DTD/svg11.dtd">
<svg id="digg2-logo" class="custom-icon" version="1.1" xmlns="http://www.w3.org/2000/svg" xmlns:xlink="http://www.w3.org/1999/xlink" viewBox="0 0 100 100" style="height: 100px; width: 100px;"><circle class="outer-shape" cx="50" cy="50" r="48" style="opacity: 1; fill: rgb(46, 139, 87);"></circle>
	<path class="inner-shape" style="opacity: 1; fill: rgb(247, 247, 247);" transform="translate(25,25) scale(0.5)" d="M15.659,34.706H1.001v30.587h24.704V21.716H15.659C15.659,21.716,15.659,34.706,15.659,34.706z M15.659,56.356h-4.613 V43.608h4.613V56.356z M30.318,65.294h10.046V34.706H30.318V65.294z M30.318,30.618h10.046v-8.902H30.318V30.618z M44.978,65.294 h14.659v4.088H44.978v8.902l24.704-0.001l0.001-43.577H44.978V65.294z M55.022,43.608h4.614v12.748h-4.614V43.608z M74.295,34.706 v30.587h14.659v4.088H74.295v8.902l24.704-0.001l0.001-43.577H74.295V34.706z M88.954,56.356h-4.613V43.608h4.613V56.356z"></path>
</svg>

