<?xml version="1.0" encoding="utf-8"?>
<!-- Generate more at customizr.net -->
<!DOCTYPE svg PUBLIC "-//W3C//DTD SVG 1.1//EN" "http://www.w3.org/Graphics/SVG/1.1/DTD/svg11.dtd">
<svg id="dribble" class="custom-icon" version="1.1" xmlns="http://www.w3.org/2000/svg" xmlns:xlink="http://www.w3.org/1999/xlink" viewBox="0 0 100 100" style="height: 100px; width: 100px;"><circle class="outer-shape" cx="50" cy="50" r="48" style="opacity: 1; fill: rgb(46, 139, 87);"></circle>
	<path class="inner-shape" style="opacity: 1; fill: rgb(247, 247, 247);" transform="translate(25,25) scale(0.5)" d="M74.277,22.662c-0.659,0.938-6.171,8.349-19.194,13.229C49.082,24.865,42.43,15.808,41.417,14.452 c2.754-0.663,5.627-1.018,8.582-1.018C59.304,13.434,67.809,16.925,74.277,22.662L74.277,22.662z M52.56,50.375 c-18.888,6.105-28.938,22.747-29.768,24.167c-5.849-6.493-9.415-15.08-9.415-24.486c0-0.374,0.008-0.748,0.019-1.119 c1.602,0.032,19.349,0.262,37.638-5.212c1.049,2.052,2.049,4.135,2.969,6.215C53.518,50.076,53.037,50.221,52.56,50.375z M50,1 C22.938,1,1,22.938,1,50s21.938,49,49,49s49-21.938,49-49S77.062,1,50,1z M50,92.875C26.358,92.875,7.125,73.642,7.125,50 S26.358,7.125,50,7.125S92.875,26.358,92.875,50S73.642,92.875,50,92.875z M60.328,46.641c-0.76-1.786-1.578-3.56-2.429-5.305 c13.541-5.528,19.677-13.395,20.45-14.439c5.1,6.232,8.189,14.169,8.27,22.813c-1.207-0.256-13.315-2.711-25.501-1.179 C60.861,47.904,60.599,47.274,60.328,46.641L60.328,46.641z M48.009,38.093c-17.13,4.549-32.218,4.484-33.856,4.462 c2.375-11.364,10.033-20.809,20.279-25.642C35.397,18.237,41.941,27.306,48.009,38.093L48.009,38.093z M56.251,56.077 c0.08-0.028,0.161-0.054,0.241-0.081c5.141,13.36,7.268,24.559,7.813,27.771C59.908,85.64,55.072,86.677,50,86.677 c-8.466,0-16.27-2.889-22.479-7.731C28.179,77.599,35.595,63.274,56.251,56.077L56.251,56.077z M63.348,54.303 c11.477-1.837,21.559,1.171,22.811,1.566c-1.633,10.19-7.481,18.99-15.698,24.545C70.086,78.187,68.137,67.467,63.348,54.303 L63.348,54.303z"></path>
</svg>

