<?xml version="1.0" encoding="utf-8"?>
<!-- Generate more at customizr.net -->
<!DOCTYPE svg PUBLIC "-//W3C//DTD SVG 1.1//EN" "http://www.w3.org/Graphics/SVG/1.1/DTD/svg11.dtd">
<svg id="drupal" class="custom-icon" version="1.1" xmlns="http://www.w3.org/2000/svg" xmlns:xlink="http://www.w3.org/1999/xlink" viewBox="0 0 100 100" style="height: 100px; width: 100px;"><circle class="outer-shape" cx="50" cy="50" r="48" style="opacity: 1; fill: rgb(46, 139, 87);"></circle>
	<path class="inner-shape" style="opacity: 1; fill: rgb(247, 247, 247);" transform="translate(25,25) scale(0.5)" d="M71.399,19.222c-5.019-3.116-9.753-4.342-14.487-7.459C53.976,9.78,49.904,5.059,46.496,1 c-0.663,6.514-2.651,9.158-4.923,11.046c-4.829,3.776-7.859,4.909-12.025,7.176C26.044,21.016,7.012,32.345,7.012,56.704 S27.559,99,50.379,99s42.609-16.522,42.609-41.541S74.429,21.11,71.399,19.222z M71.947,90.114 c-0.473,0.472-4.829,3.493-9.942,3.965c-5.114,0.472-12.025,0.756-16.192-3.021c-0.663-0.661-0.473-1.605,0-1.983 c0.473-0.377,0.852-0.661,1.42-0.661c0.569,0,0.473,0,0.758,0.189c1.894,1.51,4.734,2.738,10.795,2.738s10.321-1.699,12.215-3.116 c0.852-0.661,1.231-0.094,1.325,0.283C72.42,88.888,72.609,89.454,71.947,90.114z M55.376,81.524 c1.042-0.944,2.745-2.455,4.356-3.116c1.609-0.661,2.462-0.566,3.977-0.566s3.125,0.094,4.261,0.85 c1.136,0.756,1.799,2.455,2.178,3.399c0.378,0.944,0,1.51-0.758,1.889c-0.663,0.377-0.758,0.189-1.42-1.039 c-0.663-1.227-1.231-2.455-4.545-2.455c-3.314,0-4.356,1.133-5.965,2.455c-1.609,1.322-2.178,1.793-2.745,1.039 C54.145,83.223,54.335,82.467,55.376,81.524z M80.468,82.278c-3.409-0.283-10.226-10.858-14.582-11.046 c-5.492-0.189-17.423,11.424-26.796,11.424c-5.681,0-7.386-0.85-9.279-2.077c-2.841-1.983-4.261-5.004-4.167-9.158 c0.095-7.364,7.007-14.257,15.718-14.351c11.079-0.095,18.748,10.952,24.335,10.857c4.734-0.094,13.824-9.347,18.274-9.347 c4.734,0,6.06,4.91,6.06,7.836c0,2.926-0.947,8.214-3.219,11.518C84.54,81.24,83.12,82.467,80.468,82.278z"></path>
</svg>

