<?xml version="1.0" encoding="utf-8"?>
<!-- Generate more at customizr.net -->
<!DOCTYPE svg PUBLIC "-//W3C//DTD SVG 1.1//EN" "http://www.w3.org/Graphics/SVG/1.1/DTD/svg11.dtd">
<svg id="firefox" class="custom-icon" version="1.1" xmlns="http://www.w3.org/2000/svg" xmlns:xlink="http://www.w3.org/1999/xlink" viewBox="0 0 100 100" style="height: 100px; width: 100px;"><circle class="outer-shape" cx="50" cy="50" r="48" style="opacity: 1; fill: rgb(46, 139, 87);"></circle>
	<path class="inner-shape" style="opacity: 1; fill: rgb(247, 247, 247);" transform="translate(25,25) scale(0.5)" d="M98.859,32.978l-1.135,7.281c0,0-1.623-13.48-3.611-18.52c-3.048-7.722-4.404-7.66-4.413-7.649 c2.041,5.187,1.671,7.974,1.671,7.974s-3.617-9.857-13.179-12.994C67.599,5.599,61.868,6.547,61.205,6.728 c-0.101-0.001-0.198-0.001-0.29-0.001c0.078,0.006,0.154,0.014,0.232,0.021c-0.003,0.002-0.009,0.004-0.008,0.005 c0.043,0.053,11.705,2.038,13.773,4.88c0,0-4.954,0-9.883,1.42c-0.222,0.064,18.138,2.293,21.891,20.641 c0,0-2.013-4.199-4.502-4.913c1.638,4.98,1.217,14.43-0.342,19.127c-0.201,0.604-0.406-2.611-3.477-3.995 c0.984,7.048-0.059,18.227-4.949,21.306c-0.381,0.24,3.065-11.036,0.693-6.677c-13.657,20.94-29.803,9.664-37.061,4.7 c3.72,0.809,10.781-0.126,13.907-2.451c0.004-0.003,0.008-0.005,0.012-0.008c3.395-2.321,5.405-4.016,7.21-3.615 c1.806,0.404,3.009-1.409,1.606-3.017c-1.404-1.611-4.815-3.826-9.429-2.619c-3.254,0.853-7.286,4.452-13.442,0.807 c-4.725-2.799-5.17-5.124-5.211-6.736c0.117-0.571,0.264-1.104,0.438-1.591c0.544-1.519,2.192-1.977,3.11-2.339 c1.555,0.268,2.896,0.753,4.303,1.474c0.019-0.468,0.025-1.09-0.002-1.795c0.135-0.269,0.052-1.077-0.165-2.065 c-0.124-0.987-0.327-2.007-0.646-2.937c0.001,0,0.002-0.001,0.003-0.001c0.005-0.002,0.011-0.004,0.015-0.007 c0.008-0.004,0.014-0.011,0.02-0.019c0.001-0.002,0.003-0.003,0.004-0.005c0.008-0.012,0.015-0.026,0.019-0.045 c0.098-0.442,1.151-1.295,2.462-2.211c1.174-0.821,2.556-1.693,3.644-2.369c0.962-0.598,1.695-1.042,1.851-1.157 c0.059-0.045,0.13-0.097,0.207-0.157c0.015-0.011,0.028-0.023,0.043-0.034c0.009-0.007,0.019-0.014,0.027-0.022 c0.517-0.413,1.291-1.192,1.452-2.83c0-0.004,0.001-0.008,0.001-0.012c0.005-0.048,0.009-0.097,0.013-0.147 c0.003-0.034,0.005-0.07,0.007-0.105c0.001-0.027,0.003-0.054,0.004-0.082c0.003-0.065,0.005-0.13,0.006-0.198 c0-0.004,0-0.007,0-0.011c0.002-0.159-0.001-0.324-0.01-0.498c-0.005-0.097-0.012-0.184-0.028-0.265 c-0.001-0.004-0.002-0.009-0.003-0.013c-0.002-0.008-0.004-0.016-0.006-0.024c-0.004-0.014-0.007-0.028-0.012-0.041 c-0.001-0.002-0.001-0.003-0.002-0.004c-0.005-0.016-0.011-0.03-0.017-0.044c0-0.001,0-0.001-0.001-0.002 c-0.168-0.393-0.797-0.542-3.392-0.585c-0.003,0-0.005,0-0.007,0l0,0c-1.059-0.018-2.444-0.019-4.259-0.012 c-3.182,0.013-4.941-3.111-5.503-4.319c0.769-4.255,2.993-7.287,6.646-9.343c0.07-0.039,0.056-0.071-0.026-0.094 c0.714-0.432-8.637-0.012-12.938,5.459c-3.817-0.949-7.144-0.885-10.012-0.212c-0.551-0.016-1.237-0.084-2.051-0.254 c-1.907-1.728-4.636-4.92-4.782-8.729c0,0-0.009,0.007-0.024,0.02c-0.002-0.036-0.005-0.073-0.007-0.11c0,0-5.81,4.466-4.941,16.642 c-0.002,0.195-0.006,0.381-0.012,0.563c-1.573,2.133-2.353,3.926-2.411,4.322c-1.394,2.837-2.808,7.106-3.958,13.588 c0,0,0.805-2.552,2.42-5.442c-1.188,3.639-2.121,9.298-1.573,17.787c0,0,0.145-1.883,0.658-4.593 C2.901,56,4.655,62.499,9.089,70.143c8.512,14.674,21.597,22.083,36.06,23.219c2.569,0.212,5.172,0.217,7.793,0.018 c0.241-0.017,0.481-0.035,0.722-0.055c2.964-0.208,5.947-0.656,8.923-1.375c40.691-9.838,36.266-58.973,36.266-58.973L98.859,32.978 z"></path>
</svg>

