<?xml version="1.0" encoding="utf-8"?>
<!-- Generate more at customizr.net -->
<!DOCTYPE svg PUBLIC "-//W3C//DTD SVG 1.1//EN" "http://www.w3.org/Graphics/SVG/1.1/DTD/svg11.dtd">
<svg id="foursquare" class="custom-icon" version="1.1" xmlns="http://www.w3.org/2000/svg" xmlns:xlink="http://www.w3.org/1999/xlink" viewBox="0 0 100 100" style="height: 100px; width: 100px;"><circle class="outer-shape" cx="50" cy="50" r="48" style="opacity: 1; fill: rgb(46, 139, 87);"></circle>
	<path class="inner-shape" style="opacity: 1; fill: rgb(247, 247, 247);" transform="translate(25,25) scale(0.5)" d="M35.117,39.024c-1.783-1.8-4.674-1.8-6.457,0l-6.237,6.297c-1.783,1.8-1.783,4.719,0,6.52L39.95,69.539 c0.092,0.112,0.17,0.232,0.274,0.339l6.659,6.724c1.783,1.8,4.675,1.8,6.457,0l44.323-44.758c1.783-1.8,1.783-4.719,0-6.52 L91.004,18.6c-1.782-1.8-4.674-1.8-6.456,0L49.72,53.769L35.117,39.024z M67.178,70.947c-0.259,0.403-0.557,0.788-0.907,1.141 L55.082,83.386c-2.674,2.701-7.011,2.701-9.685,0L16.079,53.781c-2.675-2.7-2.675-7.079,0-9.78l11.189-11.299 c2.675-2.701,7.011-2.701,9.685,0l13.653,13.787l24.28-24.517L57.526,4.443c-4.458-4.502-11.684-4.502-16.142,0L4.343,41.847 c-4.457,4.502-4.457,11.799,0,16.3l37.048,37.41c4.457,4.502,11.684,4.502,16.142,0l37.041-37.404 c4.218-4.26,4.437-11.02,0.672-15.548L67.178,70.947z"></path>
</svg>

