<?xml version="1.0" encoding="utf-8"?>
<!-- Generate more at customizr.net -->
<!DOCTYPE svg PUBLIC "-//W3C//DTD SVG 1.1//EN" "http://www.w3.org/Graphics/SVG/1.1/DTD/svg11.dtd">
<svg id="ie" class="custom-icon" version="1.1" xmlns="http://www.w3.org/2000/svg" xmlns:xlink="http://www.w3.org/1999/xlink" viewBox="0 0 100 100" style="height: 100px; width: 100px;"><circle class="outer-shape" cx="50" cy="50" r="48" style="opacity: 1; fill: rgb(46, 139, 87);"></circle>
	<path class="inner-shape" style="opacity: 1; fill: rgb(247, 247, 247);" transform="translate(25,25) scale(0.5)" d="M74.963,57.575h23.78C98.927,55.925,99,54.241,99,52.518c0-8.081-2.169-15.661-5.956-22.189 c3.917-10.408,3.777-19.24-1.466-24.519c-4.987-4.965-18.364-4.158-33.487,2.539c-1.118-0.085-2.248-0.128-3.389-0.128 c-20.757,0-38.172,14.284-42.987,33.531c6.511-8.336,13.362-14.381,22.513-18.783c-0.832,0.78-5.687,5.607-6.504,6.424 C3.593,53.518-4.018,85.031,4.171,93.221c6.225,6.223,17.505,5.172,30.461-1.174c6.024,3.068,12.844,4.798,20.069,4.798 c19.457,0,35.944-12.523,41.917-29.965H72.656c-3.298,6.083-9.746,10.223-17.148,10.223c-7.402,0-13.85-4.14-17.148-10.223 c-1.466-2.747-2.309-5.899-2.309-9.234v-0.073h38.912L74.963,57.575z M36.088,45.887c0.55-9.782,8.684-17.587,18.614-17.587 s18.064,7.805,18.614,17.587H36.09H36.088z M91.36,10.729c3.377,3.413,3.293,9.693,0.404,17.531 c-4.949-7.546-12.141-13.493-20.63-16.888C80.211,7.48,87.596,6.964,91.36,10.729z M10.418,91.668 c-4.31-4.311-3.01-13.36,2.542-24.262c3.456,9.698,10.191,17.84,18.873,23.085c-9.613,4.364-17.482,5.105-21.413,1.176 L10.418,91.668z"></path>
</svg>

