<?xml version="1.0" encoding="utf-8"?>
<!-- Generate more at customizr.net -->
<!DOCTYPE svg PUBLIC "-//W3C//DTD SVG 1.1//EN" "http://www.w3.org/Graphics/SVG/1.1/DTD/svg11.dtd">
<svg id="instagram" class="custom-icon" version="1.1" xmlns="http://www.w3.org/2000/svg" xmlns:xlink="http://www.w3.org/1999/xlink" viewBox="0 0 100 100" style="height: 100px; width: 100px;"><circle class="outer-shape" cx="50" cy="50" r="48" style="opacity: 1; fill: rgb(46, 139, 87);"></circle>
	<path class="inner-shape" style="opacity: 1; fill: rgb(247, 247, 247);" transform="translate(25,25) scale(0.5)" d="M88.2,1H11.8C5.85,1,1.026,5.827,1.026,11.781V88.22C1.026,94.174,5.85,99,11.8,99H88.2c5.95,0,10.774-4.826,10.774-10.78 V11.781C98.973,5.827,94.149,1,88.2,1z M49.946,31.184c10.356,0,18.752,8.4,18.752,18.762c0,10.361-8.396,18.761-18.752,18.761 s-18.752-8.4-18.752-18.761S39.589,31.184,49.946,31.184z M87.513,83.615c0,2.165-1.753,3.919-3.917,3.919H16.341 c-2.164,0-3.917-1.755-3.917-3.919v-41.06h8.508c-0.589,2.35-0.904,4.807-0.904,7.34c0,16.612,13.459,30.079,30.063,30.079 s30.063-13.466,30.063-30.079c0-2.533-0.315-4.99-0.904-7.34h8.263L87.513,83.615L87.513,83.615z M87.764,27.124 c0,2.165-1.754,3.919-3.918,3.919H72.723c-2.164,0-3.917-1.755-3.917-3.919v-11.13c0-2.165,1.754-3.919,3.917-3.919h11.123 c2.165,0,3.918,1.755,3.918,3.919V27.124z"></path>
</svg>

