<?xml version="1.0" encoding="utf-8"?>
<!-- Generate more at customizr.net -->
<!DOCTYPE svg PUBLIC "-//W3C//DTD SVG 1.1//EN" "http://www.w3.org/Graphics/SVG/1.1/DTD/svg11.dtd">
<svg id="joomla" class="custom-icon" version="1.1" xmlns="http://www.w3.org/2000/svg" xmlns:xlink="http://www.w3.org/1999/xlink" viewBox="0 0 100 100" style="height: 100px; width: 100px;"><circle class="outer-shape" cx="50" cy="50" r="48" style="opacity: 1; fill: rgb(46, 139, 87);"></circle>
	<path class="inner-shape" style="opacity: 1; fill: rgb(247, 247, 247);" transform="translate(25,25) scale(0.5)" d="M26.458,27.479c3.142-3.143,8.231-3.143,11.37-0.003l0.749,0.753l9.675-9.681l-0.754-0.755 c-5.514-5.522-13.256-7.453-20.329-5.792C26.155,5.764,20.749,1.003,14.233,1C6.993,1,1.126,6.88,1.124,14.126 c0,6.252,4.363,11.484,10.207,12.807c-2.215,7.412-0.406,15.775,5.44,21.627l21.804,21.81l9.666-9.686L26.439,38.876 C23.311,35.744,23.306,30.634,26.458,27.479L26.458,27.479z M98.876,14.127c0.002-7.251-5.868-13.126-13.109-13.126 c-6.626,0-12.104,4.923-12.985,11.316c-7.376-2.169-15.675-0.334-21.499,5.494l-21.805,21.81l9.675,9.682l21.798-21.807 c3.153-3.155,8.229-3.149,11.358-0.018c3.139,3.142,3.139,8.242-0.003,11.384l-0.746,0.75l9.667,9.69l0.752-0.759 c5.786-5.797,7.625-14.045,5.513-21.403C93.919,26.296,98.875,20.791,98.876,14.127L98.876,14.127z M87.732,72.879 c1.733-7.125-0.189-14.96-5.752-20.528L60.208,30.532l-9.675,9.677L72.307,62.03c3.153,3.157,3.145,8.24,0.018,11.374 c-3.139,3.14-8.231,3.14-11.373-0.003l-0.743-0.746l-9.666,9.689l0.74,0.74c5.887,5.895,14.318,7.698,21.759,5.406 c1.209,5.998,6.501,10.508,12.849,10.508C93.127,98.998,99,93.127,99,85.875C99,79.252,94.102,73.773,87.732,72.879L87.732,72.879z M59.603,51.596L37.828,73.416c-3.13,3.136-8.234,3.142-11.383-0.012c-3.141-3.149-3.142-8.24-0.004-11.385l0.747-0.744 l-9.674-9.677l-0.74,0.738c-5.623,5.627-7.518,13.574-5.69,20.766C5.303,74.466,1,79.67,1,85.877C0.998,93.126,6.869,99,14.109,99 c6.23-0.003,11.445-4.346,12.78-10.181c7.149,1.776,15.025-0.124,20.609-5.719l21.771-21.816L59.603,51.596L59.603,51.596z"></path>
</svg>

