<?xml version="1.0" encoding="utf-8"?>
<!-- Generate more at customizr.net -->
<!DOCTYPE svg PUBLIC "-//W3C//DTD SVG 1.1//EN" "http://www.w3.org/Graphics/SVG/1.1/DTD/svg11.dtd">
<svg id="lastfm" class="custom-icon" version="1.1" xmlns="http://www.w3.org/2000/svg" xmlns:xlink="http://www.w3.org/1999/xlink" viewBox="0 0 100 100" style="height: 100px; width: 100px;"><circle class="outer-shape" cx="50" cy="50" r="48" style="opacity: 1; fill: rgb(46, 139, 87);"></circle>
	<path class="inner-shape" style="opacity: 1; fill: rgb(247, 247, 247);" transform="translate(25,25) scale(0.5)" d="M79.436,78.867c-10.209-0.04-15.648-5.032-19.426-13.83l-1.081-2.4L49.61,41.391c-3.091-7.52-10.759-12.602-19.412-12.602 c-11.708,0-21.206,9.499-21.206,21.215s9.498,21.214,21.206,21.214c8.167,0,15.268-4.618,18.813-11.388l3.768,8.693 c-5.351,6.524-13.482,10.679-22.581,10.679C14.072,79.201,1,66.137,1,50.003c0-16.126,13.071-29.206,29.197-29.206 c12.171,0,21.996,6.5,26.988,18.016c0.378,0.894,5.279,12.354,9.554,22.108c2.648,6.037,4.906,10.041,12.226,10.288 c7.194,0.247,12.131-4.132,12.131-9.667c0-5.408-3.764-6.707-10.12-8.82c-11.425-3.764-17.322-7.545-17.322-16.605 c0-8.837,6.013-14.73,15.783-14.73c6.364,0,10.958,2.831,14.141,8.478l-6.245,3.19c-2.353-3.294-4.949-4.594-8.247-4.594 c-4.585,0-7.86,3.19-7.86,7.433c0,6.022,5.387,6.93,12.92,9.403C94.287,48.599,99,52.372,99,61.79 C99,71.679,90.515,78.881,79.436,78.867L79.436,78.867z"></path>
</svg>

