<?xml version="1.0" encoding="utf-8"?>
<!-- Generate more at customizr.net -->
<!DOCTYPE svg PUBLIC "-//W3C//DTD SVG 1.1//EN" "http://www.w3.org/Graphics/SVG/1.1/DTD/svg11.dtd">
<svg id="myspace-logo-square" class="custom-icon" version="1.1" xmlns="http://www.w3.org/2000/svg" xmlns:xlink="http://www.w3.org/1999/xlink" viewBox="0 0 100 100" style="height: 100px; width: 100px;"><circle class="outer-shape" cx="50" cy="50" r="48" style="opacity: 1; fill: rgb(46, 139, 87);"></circle>
	<path class="inner-shape" style="opacity: 1; fill: rgb(247, 247, 247);" transform="translate(25,25) scale(0.5)" d="M75.108,31.861c8.546,0,15.471-6.916,15.471-15.433C90.58,7.908,83.654,1,75.108,1c-8.544,0-15.471,6.908-15.471,15.429 C59.637,24.945,66.564,31.861,75.108,31.861z M96.13,58.263c0-13.114-9.413-23.749-21.025-23.749 c-8.106,0-15.131,5.193-18.639,12.786c-1.912-7.639-8.117-13.245-15.492-13.245c-6.668,0-12.388,4.573-14.839,11.094 c-1.127-5.693-5.611-9.956-10.991-9.956c-6.226,0-11.276,5.705-11.276,12.739c0,0.099,0.023,0.19,0.024,0.289H3.872v21.563h20.995 v13.684h29.219V99h42.045V58.797h-0.046C96.089,58.612,96.13,58.448,96.13,58.263z M40.976,31.676 c6.549,0,11.856-5.298,11.856-11.827c0-6.531-5.307-11.822-11.856-11.822S29.12,13.319,29.12,19.849 C29.12,26.378,34.427,31.676,40.976,31.676z M15.148,33.089c4.585,0,8.298-3.713,8.298-8.283c0-4.57-3.713-8.277-8.298-8.277 c-4.583,0-8.298,3.707-8.298,8.277C6.85,29.377,10.565,33.089,15.148,33.089z"></path>
</svg>

