<?xml version="1.0" encoding="utf-8"?>
<!-- Generate more at customizr.net -->
<!DOCTYPE svg PUBLIC "-//W3C//DTD SVG 1.1//EN" "http://www.w3.org/Graphics/SVG/1.1/DTD/svg11.dtd">
<svg id="newsvine-logo" class="custom-icon" version="1.1" xmlns="http://www.w3.org/2000/svg" xmlns:xlink="http://www.w3.org/1999/xlink" viewBox="0 0 100 100" style="height: 100px; width: 100px;"><circle class="outer-shape" cx="50" cy="50" r="48" style="opacity: 1; fill: rgb(46, 139, 87);"></circle>
	<path class="inner-shape" style="opacity: 1; fill: rgb(247, 247, 247);" transform="translate(25,25) scale(0.5)" d="M64.779,30.505c5.116,2.011,10.121-0.613,10.486-5.524c0.859-9.204-15.182-9.244-13.482,0.735 c-3.06,1.903-5.737,4.18-8.99,5.892c0.87-9.333,0.128-20.249,0.376-30.196c-1.345-0.768-4.05-0.191-5.993-0.372v16.573 c-2.284,0.49-5.8-4.09-8.988-5.157c2.274-9.114-13.411-10.779-13.484-1.47c0.202,5.128,5.001,8.231,10.112,6.259 c4.445,2.505,8.539,5.351,12.36,8.469v18.047c-3.403-1.568-5.846-4.076-8.988-5.892c2.27-8.825-13.322-10.422-13.484-1.474 c-0.103,5.467,5.18,8.433,10.486,6.259c3.832,2.984,8.114,5.524,11.986,8.469v19.522c-3.253-1.711-5.93-3.993-8.988-5.892 c0.788-3.719-1.946-6.844-5.244-7.734c-5.292-0.295-7.565,2.378-8.239,6.627c0.101,5.157,5.298,8.054,10.486,5.892 c3.799,3.017,8.171,5.47,11.986,8.469V99h5.993v-7.366c3.32-3.607,8.19-5.693,11.984-8.836c1.286,0.663,3.238,1.496,4.869,0.735 c3.042-0.815,4.767-2.923,5.243-6.259c-0.314-4.112-2.696-6.187-6.366-6.999c-4.756,0.36-7.334,2.858-7.116,8.104 c-3.088,1.261-5.932,4.721-8.614,5.154V64.753c3.364-3.568,8.179-5.709,11.984-8.839c1.286,0.663,3.238,1.496,4.869,0.735 c3.042-0.814,4.767-2.923,5.243-6.259c-0.314-4.112-2.696-6.187-6.366-6.999c-4.756,0.36-7.334,2.858-7.116,8.105 c-3.088,1.261-5.932,4.721-8.614,5.154V39.341C56.21,35.582,61.139,33.675,64.779,30.505z"></path>
</svg>

