<?xml version="1.0" encoding="utf-8"?>
<!-- Generate more at customizr.net -->
<!DOCTYPE svg PUBLIC "-//W3C//DTD SVG 1.1//EN" "http://www.w3.org/Graphics/SVG/1.1/DTD/svg11.dtd">
<svg id="pinterest" class="custom-icon" version="1.1" xmlns="http://www.w3.org/2000/svg" xmlns:xlink="http://www.w3.org/1999/xlink" viewBox="0 0 100 100" style="height: 100px; width: 100px;"><circle class="outer-shape" cx="50" cy="50" r="48" style="opacity: 1; fill: rgb(46, 139, 87);"></circle>
	<path class="inner-shape" style="opacity: 1; fill: rgb(247, 247, 247);" transform="translate(25,25) scale(0.5)" d="M50.001,1.489C22.94,1.489,0.999,23.208,0.999,50c0,19.864,12.066,36.929,29.331,44.432 c-0.138-3.388-0.024-7.454,0.853-11.14c0.942-3.939,6.305-26.433,6.305-26.433s-1.566-3.098-1.566-7.676 c0-7.188,4.209-12.558,9.451-12.558c4.457,0,6.61,3.314,6.61,7.283c0,4.435-2.858,11.071-4.327,17.215 c-1.228,5.146,2.606,9.343,7.734,9.343c9.285,0,15.537-11.805,15.537-25.791c0-10.633-7.233-18.59-20.39-18.59 c-14.864,0-24.124,10.974-24.124,23.232c0,4.226,1.258,7.207,3.23,9.515c0.906,1.06,1.032,1.488,0.704,2.704 c-0.235,0.893-0.775,3.042-0.999,3.894c-0.326,1.229-1.332,1.668-2.453,1.214C20.05,63.877,16.861,56.455,16.861,48.11 c0-13.781,11.739-30.304,35.022-30.304c18.708,0,31.021,13.403,31.021,27.79c0,19.029-10.687,33.247-26.44,33.247 c-5.289,0-10.266-2.831-11.971-6.047c0,0-2.845,11.177-3.448,13.335c-1.039,3.74-3.072,7.478-4.932,10.392 C40.52,97.81,45.175,98.511,50,98.511c27.059,0,49-21.719,49-48.511S77.06,1.489,50.001,1.489z"></path>
</svg>

