<?xml version="1.0" encoding="utf-8"?>
<!-- Generate more at customizr.net -->
<!DOCTYPE svg PUBLIC "-//W3C//DTD SVG 1.1//EN" "http://www.w3.org/Graphics/SVG/1.1/DTD/svg11.dtd">
<svg id="reddit" class="custom-icon" version="1.1" xmlns="http://www.w3.org/2000/svg" xmlns:xlink="http://www.w3.org/1999/xlink" viewBox="0 0 100 100" style="height: 100px; width: 100px;"><circle class="outer-shape" cx="50" cy="50" r="48" style="opacity: 1; fill: rgb(46, 139, 87);"></circle>
	<path class="inner-shape" style="opacity: 1; fill: rgb(247, 247, 247);" transform="translate(25,25) scale(0.5)" d="M25.5,56.125c0-3.383,2.742-6.125,6.125-6.125s6.125,2.742,6.125,6.125s-2.742,6.125-6.125,6.125S25.5,59.508,25.5,56.125z M62.25,56.125c0-3.383,2.742-6.125,6.125-6.125s6.125,2.742,6.125,6.125s-2.742,6.125-6.125,6.125S62.25,59.508,62.25,56.125z M62.548,69.215c1.578-1.243,3.864-0.972,5.107,0.606s0.971,3.864-0.607,5.108c-4.392,3.46-11.085,5.697-17.049,5.697 s-12.657-2.236-17.049-5.697c-1.578-1.244-1.849-3.53-0.606-5.108c1.244-1.578,3.53-1.849,5.108-0.606 c2.528,1.992,7.534,4.137,12.548,4.137S60.019,71.207,62.548,69.215z M99,43.875c0-6.766-5.484-12.25-12.25-12.25 c-4.605,0-8.612,2.543-10.705,6.299c-6.297-3.445-13.968-5.67-22.325-6.183l7.31-16.416l13.991,4.039 c1.258,3.574,4.663,6.136,8.666,6.136c5.074,0,9.188-4.113,9.188-9.188s-4.113-9.188-9.188-9.188c-3.499,0-6.541,1.956-8.092,4.834 l-15.591-4.5c-1.744-0.503-3.593,0.356-4.331,2.015l-9.931,22.301c-8.148,0.574-15.625,2.777-21.785,6.148 c-2.092-3.756-6.102-6.297-10.707-6.297C6.484,31.625,1,37.109,1,43.875c0,5.007,3.006,9.307,7.309,11.207 c-0.772,2.299-1.184,4.699-1.184,7.168C7.125,79.164,26.32,92.875,50,92.875c23.679,0,42.875-13.711,42.875-30.625 c0-2.469-0.412-4.868-1.184-7.167C95.995,53.184,99,48.882,99,43.875z M83.688,12.867c1.903,0,3.446,1.543,3.446,3.446 s-1.543,3.446-3.446,3.446s-3.446-1.543-3.446-3.446S81.784,12.867,83.688,12.867z M7.125,43.875c0-3.377,2.748-6.125,6.125-6.125 c2.441,0,4.553,1.436,5.536,3.507c-3.201,2.427-5.854,5.228-7.816,8.302C8.719,48.652,7.125,46.447,7.125,43.875L7.125,43.875z M50,85.601c-19.662,0-35.601-10.455-35.601-23.351S30.338,38.899,50,38.899S85.601,49.353,85.601,62.25S69.662,85.601,50,85.601z M89.029,49.558c-1.962-3.073-4.615-5.873-7.815-8.302c0.984-2.071,3.095-3.507,5.536-3.507c3.377,0,6.125,2.748,6.125,6.125 C92.875,46.446,91.281,48.651,89.029,49.558L89.029,49.558z"></path>
</svg>

