<?xml version="1.0" encoding="utf-8"?>
<!-- Generate more at customizr.net -->
<!DOCTYPE svg PUBLIC "-//W3C//DTD SVG 1.1//EN" "http://www.w3.org/Graphics/SVG/1.1/DTD/svg11.dtd">
<svg id="safari" class="custom-icon" version="1.1" xmlns="http://www.w3.org/2000/svg" xmlns:xlink="http://www.w3.org/1999/xlink" viewBox="0 0 100 100" style="height: 100px; width: 100px;"><circle class="outer-shape" cx="50" cy="50" r="48" style="opacity: 1; fill: rgb(46, 139, 87);"></circle>
	<path class="inner-shape" style="opacity: 1; fill: rgb(247, 247, 247);" transform="translate(25,25) scale(0.5)" d="M50,7.125c-2.303,0-4.566,0.172-6.778,0.499c-0.028-0.074-0.06-0.148-0.094-0.22c1.228-0.957,1.871-2.28,1.592-3.594 C44.362,2.13,42.576,1,40.275,1c-0.496,0-1.001,0.054-1.5,0.16c-2.887,0.613-4.799,2.739-4.353,4.839 c0.271,1.277,1.368,2.233,2.887,2.621c-0.003,0.093-0.002,0.186,0.004,0.281c-19.2,5.506-33.25,23.193-33.25,44.162 C4.062,78.433,24.63,99,50,99s45.938-20.567,45.938-45.938S75.37,7.125,50,7.125z M35.92,5.68c-0.259-1.218,1.195-2.602,3.173-3.022 c0.396-0.084,0.794-0.126,1.182-0.126c1.535,0,2.746,0.657,2.946,1.597c0.153,0.718-0.294,1.494-1.09,2.096 c-0.673-0.475-1.533-0.682-2.402-0.497c-0.865,0.184-1.564,0.718-1.986,1.422C36.768,6.916,36.067,6.377,35.92,5.68L35.92,5.68z M74.632,77.695c-4.208,4.208-9.303,7.204-14.864,8.819l-4.057-6.582l-1.028,7.652c-1.54,0.206-3.104,0.313-4.683,0.313 c-9.305,0-18.053-3.624-24.632-10.204c-4.208-4.208-7.204-9.303-8.819-14.864l6.582-4.057l-7.653-1.028 c-0.206-1.54-0.313-3.104-0.313-4.683c0-9.305,3.623-18.053,10.204-24.632c4.208-4.208,9.303-7.204,14.864-8.82l4.057,6.582 l1.029-7.653c1.54-0.206,3.103-0.313,4.683-0.313c9.305,0,18.053,3.623,24.632,10.204c4.208,4.208,7.204,9.303,8.819,14.864 l-6.582,4.057l7.653,1.028c0.206,1.54,0.313,3.103,0.313,4.683c0,9.305-3.624,18.053-10.204,24.632L74.632,77.695z M73.821,29.242 L54.97,43.569c-1.401-0.733-2.955-1.154-4.537-1.218l-4.888-10.258L45.25,43.45c-1.271,0.625-2.403,1.499-3.338,2.579l-6.038-2.14 l4.411,4.645c-0.607,1.294-0.944,2.682-0.999,4.098L29.031,57.52l11.364,0.294c0.036,0.073,0.074,0.146,0.112,0.219L26.179,76.883 L45.03,62.556c1.401,0.733,2.955,1.154,4.537,1.218l4.888,10.258l0.293-11.356c1.271-0.625,2.403-1.499,3.338-2.579l6.038,2.14 l-4.411-4.645c0.607-1.294,0.945-2.682,0.999-4.098l10.255-4.887l-11.363-0.294c-0.036-0.074-0.074-0.146-0.112-0.219l14.327-18.851 L73.821,29.242z M50.01,43.544L50.01,43.544z M48.09,44.076c0.644-0.137,1.287-0.203,1.92-0.203c0.397,0,0.79,0.025,1.177,0.076 l0.009,0.003l-0.001-0.002c0.836,0.11,1.643,0.335,2.405,0.66l-6.847,5.204l-5.205,6.847c-0.227-0.535-0.409-1.099-0.534-1.69 C39.958,50.009,43.126,45.129,48.09,44.076L48.09,44.076z M54.797,60.899L54.797,60.899L54.797,60.899 c-0.866,0.53-1.836,0.927-2.886,1.151c-0.644,0.137-1.287,0.203-1.919,0.203c-0.397,0-0.79-0.026-1.178-0.076l-0.007-0.001 c-0.836-0.11-1.643-0.335-2.405-0.66l6.847-5.204l5.205-6.848c0.227,0.535,0.409,1.1,0.534,1.69 C59.821,55.065,58.026,58.924,54.797,60.899L54.797,60.899z"></path>
</svg>

