<?xml version="1.0" encoding="utf-8"?>
<!-- Generate more at customizr.net -->
<!DOCTYPE svg PUBLIC "-//W3C//DTD SVG 1.1//EN" "http://www.w3.org/Graphics/SVG/1.1/DTD/svg11.dtd">
<svg id="skype" class="custom-icon" version="1.1" xmlns="http://www.w3.org/2000/svg" xmlns:xlink="http://www.w3.org/1999/xlink" viewBox="0 0 100 100" style="height: 100px; width: 100px;"><circle class="outer-shape" cx="50" cy="50" r="48" style="opacity: 1; fill: rgb(46, 139, 87);"></circle>
	<path class="inner-shape" style="opacity: 1; fill: rgb(247, 247, 247);" transform="translate(25,25) scale(0.5)" d="M94.34,56.31c0.27-1.99,0.424-4.014,0.424-6.074c0-24.721-20.15-44.764-45-44.764c-2.47,0-4.891,0.203-7.248,0.59 c-4.225-2.753-9.253-4.358-14.664-4.358c-14.838,0-26.852,12.021-26.852,26.855c0,5.397,1.589,10.411,4.324,14.621 c-0.368,2.3-0.557,4.656-0.557,7.055c0,24.725,20.139,44.766,44.996,44.766c2.806,0,5.537-0.273,8.192-0.753 c4.125,2.559,8.984,4.047,14.192,4.047c14.834,0,26.853-12.024,26.853-26.856C99,65.834,97.286,60.62,94.34,56.31L94.34,56.31z M53.97,83.226c-14.299,0.745-20.99-2.419-27.12-8.171c-6.845-6.425-4.095-13.753,1.482-14.125c5.574-0.372,8.921,6.319,11.896,8.18 c2.971,1.854,14.277,6.079,20.25-0.748c6.503-7.432-4.325-11.278-12.262-12.442c-11.332-1.678-25.639-7.808-24.525-19.888 c1.113-12.072,10.256-18.263,19.877-19.136c12.265-1.113,20.249,1.858,26.564,7.247c7.302,6.226,3.352,13.187-1.301,13.746 c-4.634,0.557-9.839-10.241-20.057-10.403c-10.532-0.166-17.651,10.96-4.648,14.122c13.009,3.159,26.94,4.457,31.957,16.349 C81.102,69.85,68.281,82.48,53.97,83.226z"></path>
</svg>

