<?xml version="1.0" encoding="utf-8"?>
<!-- Generate more at customizr.net -->
<!DOCTYPE svg PUBLIC "-//W3C//DTD SVG 1.1//EN" "http://www.w3.org/Graphics/SVG/1.1/DTD/svg11.dtd">
<svg id="soundcloud" class="custom-icon" version="1.1" xmlns="http://www.w3.org/2000/svg" xmlns:xlink="http://www.w3.org/1999/xlink" viewBox="0 0 100 100" style="height: 100px; width: 100px;"><circle class="outer-shape" cx="50" cy="50" r="48" style="opacity: 1; fill: rgb(46, 139, 87);"></circle>
	<path class="inner-shape" style="opacity: 1; fill: rgb(247, 247, 247);" transform="translate(25,25) scale(0.5)" d="M17.378,49.398c-0.354,0-0.637,0.281-0.659,0.655l-0.815,10.052l0.815,10.57c0.023,0.372,0.305,0.654,0.659,0.654 c0.349,0,0.631-0.282,0.658-0.653l0.925-10.571l-0.925-10.056C18.01,49.677,17.728,49.398,17.378,49.398z M25.299,39.191 c-0.444,0-0.807,0.363-0.827,0.826c0,0.001-0.716,20.094-0.716,20.094l0.718,10.504c0.019,0.459,0.381,0.822,0.825,0.822 c0.44,0,0.804-0.363,0.826-0.827l0.809-10.499l-0.81-20.094C26.101,39.552,25.74,39.191,25.299,39.191z M13.465,48.697 c-0.304,0-0.552,0.246-0.577,0.572l-0.864,10.837l0.864,10.484c0.024,0.324,0.272,0.569,0.577,0.569 c0.299,0,0.548-0.245,0.575-0.569l0.982-10.484l-0.982-10.839C14.012,48.942,13.765,48.697,13.465,48.697z M21.321,43.012 c-0.395,0-0.722,0.327-0.74,0.743l-0.767,16.354l0.767,10.569c0.02,0.413,0.345,0.739,0.74,0.739c0.394,0,0.72-0.327,0.743-0.741 v0.003l0.868-10.57l-0.869-16.354C22.041,43.339,21.714,43.012,21.321,43.012z M9.583,49.071c-0.258,0-0.464,0.204-0.491,0.485 c0,0.001-0.915,10.547-0.915,10.547l0.915,10.161c0.026,0.282,0.232,0.486,0.491,0.486c0.255,0,0.462-0.203,0.491-0.484 l1.039-10.163l-1.038-10.547C10.044,49.273,9.838,49.071,9.583,49.071z M5.733,50.813c-0.208,0-0.38,0.168-0.409,0.399 c0,0.003-0.963,8.889-0.963,8.889l0.963,8.691c0.028,0.233,0.2,0.402,0.409,0.402c0.205,0,0.373-0.164,0.407-0.399l1.096-8.694 l-1.095-8.889C6.107,50.976,5.939,50.813,5.733,50.813z M2.11,54.216c-0.205,0-0.367,0.159-0.394,0.388L1,60.101l0.717,5.403 c0.027,0.229,0.188,0.388,0.394,0.388c0.199,0,0.359-0.158,0.392-0.386l0.849-5.405l-0.849-5.499 C2.471,54.375,2.308,54.216,2.11,54.216z M49.767,31.36c-0.724,0-1.319,0.6-1.329,1.338l-0.544,27.426l0.545,9.954 c0.009,0.727,0.604,1.326,1.328,1.326c0.723,0,1.316-0.599,1.326-1.337v0.012l0.592-9.955l-0.592-27.428 C51.083,31.961,50.49,31.36,49.767,31.36z M86.948,47.141c-1.652,0-3.229,0.338-4.663,0.945c-0.96-10.973-10.071-19.58-21.182-19.58 c-2.719,0-5.369,0.541-7.71,1.455c-0.91,0.356-1.151,0.723-1.161,1.431v38.641c0.011,0.744,0.582,1.365,1.303,1.438 c0.03,0.003,33.196,0.021,33.411,0.021c6.657,0,12.054-5.45,12.054-12.176C99,52.593,93.605,47.141,86.948,47.141z M45.653,33.722 c-0.677,0-1.235,0.561-1.244,1.252l-0.468,25.136c0,0.017,0.468,10.109,0.468,10.109c0.01,0.684,0.57,1.245,1.244,1.245 c0.674,0,1.231-0.562,1.242-1.252l0.525-10.092l-0.525-25.147C46.885,34.285,46.327,33.722,45.653,33.722z M29.307,37.431 c-0.494,0-0.894,0.4-0.91,0.911c0,0.001-0.668,21.771-0.668,21.771l0.668,10.394c0.016,0.508,0.414,0.907,0.909,0.907 c0.49,0,0.89-0.399,0.909-0.91l0.752-10.391L30.216,38.34C30.196,37.83,29.797,37.431,29.307,37.431z M33.346,36.61 c-0.541,0-0.978,0.437-0.992,0.998l-0.618,22.506l0.619,10.331c0.014,0.555,0.451,0.992,0.991,0.992c0.54,0,0.973-0.437,0.992-0.994 v-0.002l0.696-10.325l-0.696-22.508C34.321,37.049,33.884,36.61,33.346,36.61z M41.518,37.82c-0.637,0-1.148,0.513-1.161,1.168 l-0.518,21.131l0.518,10.168c0.013,0.646,0.523,1.159,1.161,1.159c0.637,0,1.144-0.511,1.16-1.166v0.008L43.26,60.12l-0.581-21.134 C42.662,38.332,42.155,37.82,41.518,37.82z M37.416,37.104c-0.59,0-1.065,0.475-1.077,1.081l-0.568,21.933l0.569,10.23 c0.013,0.6,0.487,1.077,1.077,1.077c0.586,0,1.06-0.476,1.076-1.083v0.009l0.638-10.235l-0.639-21.931 C38.476,37.578,38.002,37.104,37.416,37.104z"></path>
</svg>

