<?xml version="1.0" encoding="utf-8"?>
<!-- Generate more at customizr.net -->
<!DOCTYPE svg PUBLIC "-//W3C//DTD SVG 1.1//EN" "http://www.w3.org/Graphics/SVG/1.1/DTD/svg11.dtd">
<svg id="stumbleupon" class="custom-icon" version="1.1" xmlns="http://www.w3.org/2000/svg" xmlns:xlink="http://www.w3.org/1999/xlink" viewBox="0 0 100 100" style="height: 100px; width: 100px;"><circle class="outer-shape" cx="50" cy="50" r="48" style="opacity: 1; fill: rgb(46, 139, 87);"></circle>
	<path class="inner-shape" style="opacity: 1; fill: rgb(247, 247, 247);" transform="translate(25,25) scale(0.5)" d="M50,1C22.943,1,1.01,22.937,1.01,50S22.943,99,50,99s48.99-21.937,48.99-49S77.056,1,50,1z M50,38.207 c-1.639,0-2.967,1.329-2.967,2.967l-0.014,17.882c-0.097,6.838-5.658,12.354-12.518,12.354c-6.922,0-12.532-5.611-12.532-12.534 c0-0.091,0-7.776,0-7.776h9.591v7.674c0,1.639,1.328,2.967,2.967,2.967s2.967-1.328,2.967-2.967V40.669 c0.24-6.71,5.738-12.08,12.506-12.08c6.792,0,12.305,5.408,12.506,12.154v3.963l-5.71,1.705l-3.829-1.785v-3.451 C52.967,39.537,51.639,38.207,50,38.207z M78.031,58.877c0,6.923-5.611,12.534-12.532,12.534c-6.884,0-12.472-5.552-12.532-12.423 v-7.814l3.829,1.785l5.71-1.705v7.878c0,1.639,1.329,2.968,2.967,2.968c1.639,0,2.967-1.329,2.967-2.968V51.1h9.591 C78.031,51.1,78.031,58.786,78.031,58.877z"></path>
</svg>

