<?xml version="1.0" encoding="utf-8"?>
<!-- Generate more at customizr.net -->
<!DOCTYPE svg PUBLIC "-//W3C//DTD SVG 1.1//EN" "http://www.w3.org/Graphics/SVG/1.1/DTD/svg11.dtd">
<svg id="super-user" class="custom-icon" version="1.1" xmlns="http://www.w3.org/2000/svg" xmlns:xlink="http://www.w3.org/1999/xlink" viewBox="0 0 100 100" style="height: 100px; width: 100px;"><circle class="outer-shape" cx="50" cy="50" r="48" style="opacity: 1; fill: rgb(46, 139, 87);"></circle>
	<path class="inner-shape" style="opacity: 1; fill: rgb(247, 247, 247);" transform="translate(25,25) scale(0.5)" d="M34.082,98.895H11.317c-0.921,0-1.382-0.235-1.382-1.057V2.178C9.936,1.467,10.396,1,11.317,1h22.608 c0.925,0,1.54,0.357,1.54,1.178v5.889c0,0.826-0.466,1.059-1.384,1.059H23.93c-1.233,0-1.693,0.475-1.693,1.297v79.165 c0,0.822,0.46,1.18,1.538,1.18h10.15c0.925,0,1.54,0.349,1.54,1.053v6.017C35.465,98.54,35,98.895,34.082,98.895 M86.217,60.158 c2.77-0.826,3.847-1.291,3.847-2.466v-4.818c0-1.759-1.23-1.876-3.537-2.581c-6.154-2.113-10.306-5.404-10.306-11.159V23.99 c0-12.451-11.996-22.969-26.759-22.969h-2.306c-0.927,0-1.537,0.348-1.537,1.17v5.756c0,0.821,0.458,1.173,1.381,1.173h1.846 c8.764,0,14.918,6.994,14.918,13.927v18.082c0,5.643,3.998,10.337,10.306,13.157c0.463,0.233,0.611,0.586,0.611,0.819 c0,0.237-0.148,0.472-0.611,0.591c-6.919,2.463-10.306,9.273-10.306,14.209v15.821c0,7.046-6.154,5.125-14.918,5.125h-1.846 c-0.923,0-1.381,0.356-1.381,1.176v5.755c0,0.821,0.611,1.174,1.537,1.174h2.306c14.763,0,26.604,1.364,26.604-11.082V71.197 C76.067,65.435,80.22,61.918,86.217,60.158 M56.666,37.788c0-1.338-1.207-2.43-2.68-2.43h-6.033c-1.475,0-2.678,1.092-2.678,2.43 v5.461c0,1.334,1.204,2.428,2.678,2.428h6.033c1.473,0,2.68-1.094,2.68-2.428V37.788z"></path>
</svg>

