<?xml version="1.0" encoding="utf-8"?>
<!-- Generate more at customizr.net -->
<!DOCTYPE svg PUBLIC "-//W3C//DTD SVG 1.1//EN" "http://www.w3.org/Graphics/SVG/1.1/DTD/svg11.dtd">
<svg id="tumblr" class="custom-icon" version="1.1" xmlns="http://www.w3.org/2000/svg" xmlns:xlink="http://www.w3.org/1999/xlink" viewBox="0 0 100 100" style="height: 100px; width: 100px;"><circle class="outer-shape" cx="50" cy="50" r="48" style="opacity: 1; fill: rgb(46, 139, 87);"></circle>
	<path class="inner-shape" style="opacity: 1; fill: rgb(247, 247, 247);" transform="translate(25,25) scale(0.5)" d="M82.671,1H17.336C8.351,1,1,8.351,1,17.336v65.329c0,8.99,7.351,16.335,16.335,16.335h65.335 C91.654,99.001,99,91.655,99,82.665V17.336C98.999,8.352,91.654,1.001,82.671,1L82.671,1z M71.028,79.925 c-2.886,1.358-5.506,2.315-7.848,2.865c-2.344,0.545-4.877,0.819-7.599,0.819c-3.092,0-4.917-0.388-7.291-1.166 c-2.375-0.784-4.402-1.902-6.077-3.337c-1.681-1.447-2.841-2.986-3.49-4.612c-0.65-1.628-0.972-3.99-0.972-7.082V43.698h-9.187 v-9.576c2.655-0.861,5.736-2.099,7.626-3.708c1.899-1.615,3.418-3.547,4.564-5.807c1.149-2.255,1.938-5.132,2.369-8.62h9.618v15.642 h15.635v12.071H52.739v17.34c0,3.924-0.051,6.185,0.366,7.297c0.413,1.106,1.447,2.255,2.574,2.919 c1.498,0.898,3.207,1.346,5.132,1.346c3.425,0,6.832-1.112,10.216-3.338v10.665V79.925z"></path>
</svg>

