<?xml version="1.0" encoding="utf-8"?>
<!-- Generate more at customizr.net -->
<!DOCTYPE svg PUBLIC "-//W3C//DTD SVG 1.1//EN" "http://www.w3.org/Graphics/SVG/1.1/DTD/svg11.dtd">
<svg id="wordpress" class="custom-icon" version="1.1" xmlns="http://www.w3.org/2000/svg" xmlns:xlink="http://www.w3.org/1999/xlink" viewBox="0 0 100 100" style="height: 100px; width: 100px;"><circle class="outer-shape" cx="50" cy="50" r="48" style="opacity: 1; fill: rgb(46, 139, 87);"></circle>
	<path class="inner-shape" style="opacity: 1; fill: rgb(247, 247, 247);" transform="translate(25,25) scale(0.5)" d="M13.25,49.999c0,14.167,8.452,26.411,20.713,32.212l-17.53-46.778C14.394,39.883,13.251,44.81,13.25,49.999L13.25,49.999z M74.809,48.194c0-4.425-1.632-7.487-3.029-9.871c-1.862-2.95-3.61-5.445-3.61-8.395c0-3.29,2.562-6.352,6.171-6.352 c0.163,0,0.318,0.02,0.476,0.028C68.279,17.77,59.567,14.207,50,14.207c-12.84,0-24.135,6.416-30.705,16.133 c0.862,0.027,1.676,0.043,2.365,0.043c3.843,0,9.794-0.455,9.794-0.455c1.981-0.113,2.214,2.721,0.235,2.95 c0,0-1.991,0.226-4.206,0.34l13.383,38.77l8.043-23.491l-5.725-15.279c-1.98-0.114-3.854-0.34-3.854-0.34 c-1.982-0.114-1.748-3.062,0.233-2.95c0,0,6.067,0.455,9.678,0.455c3.843,0,9.795-0.455,9.795-0.455 c1.982-0.113,2.215,2.721,0.234,2.95c0,0-1.994,0.227-4.206,0.34l13.282,38.475l3.666-11.928 C73.598,54.813,74.808,51.257,74.809,48.194L74.809,48.194z M50.645,53.13L39.617,84.335c3.294,0.944,6.775,1.458,10.383,1.458 c4.28,0,8.384-0.719,12.204-2.029c-0.097-0.153-0.189-0.317-0.264-0.493L50.645,53.13L50.645,53.13z M82.248,32.828 c0.158,1.14,0.248,2.363,0.248,3.681c0,3.63-0.698,7.714-2.795,12.819L68.476,80.937C79.402,74.732,86.749,63.204,86.749,50 C86.749,43.776,85.116,37.926,82.248,32.828L82.248,32.828z M50,1C22.938,1,1,22.938,1,50s21.938,49,49,49s49-21.938,49-49 S77.062,1,50,1z M50,92.875C26.321,92.875,7.125,73.679,7.125,50S26.321,7.125,50,7.125S92.875,26.321,92.875,50 S73.679,92.875,50,92.875z"></path>
</svg>

