<?xml version="1.0" encoding="utf-8"?>
<!-- Generate more at customizr.net -->
<!DOCTYPE svg PUBLIC "-//W3C//DTD SVG 1.1//EN" "http://www.w3.org/Graphics/SVG/1.1/DTD/svg11.dtd">
<svg id="xing" class="custom-icon" version="1.1" xmlns="http://www.w3.org/2000/svg" xmlns:xlink="http://www.w3.org/1999/xlink" viewBox="0 0 100 100" style="height: 100px; width: 100px;"><circle class="outer-shape" cx="50" cy="50" r="48" style="opacity: 1; fill: rgb(46, 139, 87);"></circle>
	<path class="inner-shape" style="opacity: 1; fill: rgb(247, 247, 247);" transform="translate(25,25) scale(0.5)" d="M37.277,57.478L18.19,46.249c-0.019-0.012-0.042-0.015-0.068-0.013l0.008-0.018l-0.037,0.023 c-0.068,0.015-0.15,0.067-0.238,0.149L2.002,56.358l7.483,4.514c0.011,0.037,0.026,0.068,0.054,0.084l11.001,6.471 c-0.054,0.11-0.087,0.232-0.087,0.363V99l16.168-8.547c0.175-0.03,0.331-0.115,0.449-0.237l0.028-0.015l-0.012-0.004 c0.135-0.148,0.22-0.344,0.22-0.561V67.79c0-0.064-0.008-0.125-0.022-0.186l0.02-9.727C37.361,57.679,37.356,57.525,37.277,57.478z M97.998,88.962l-11.505-6.99l-25.467-15.77V1L44.381,9.799l0.062,0.022c-0.282,0.133-0.478,0.417-0.478,0.749v64.502 c0,0.415,0.305,0.756,0.703,0.819l-0.218,0.013l6.355,3.972c0.023,0.054,0.057,0.099,0.102,0.127l10.927,6.766l3.146,1.965 l-0.016-0.027l15.255,9.446c0.116,0.072,0.28,0.035,0.445-0.075l-0.018,0.209L97.998,88.962z"></path>
</svg>

