<?xml version="1.0" encoding="utf-8"?>
<!-- Generate more at customizr.net -->
<!DOCTYPE svg PUBLIC "-//W3C//DTD SVG 1.1//EN" "http://www.w3.org/Graphics/SVG/1.1/DTD/svg11.dtd">
<svg id="yelp" class="custom-icon" version="1.1" xmlns="http://www.w3.org/2000/svg" xmlns:xlink="http://www.w3.org/1999/xlink" viewBox="0 0 100 100" style="height: 100px; width: 100px;"><circle class="outer-shape" cx="50" cy="50" r="48" style="opacity: 1; fill: rgb(46, 139, 87);"></circle>
	<path class="inner-shape" style="opacity: 1; fill: rgb(247, 247, 247);" transform="translate(25,25) scale(0.5)" d="M42.344,58.404c0.07-2.553-3.063-4.088-3.063-4.088L18.546,43.835c0,0-3.073-1.268-4.565-0.384 c-1.143,0.675-2.155,1.898-2.254,2.979l-1.35,16.635c0,0-0.202,2.882,0.544,4.194c1.057,1.859,4.536,0.565,4.536,0.565l24.207-5.354 C40.603,61.838,42.252,61.78,42.344,58.404z M42.608,43.583c0,0,1.98,2.047,4.499,1.425c2.736-0.674,3.17-4.652,3.17-4.652 l-0.185-33.1c0,0-0.413-4.083-2.246-5.19C44.97,0.32,44.117,1.23,43.294,1.353L24.004,8.526c0,0-1.889,0.625-2.873,2.203 c-1.404,2.234,1.428,5.507,1.428,5.507L42.608,43.583z M62.563,54.5l23.234-6.795c0,0,3.166-1.289,3.619-3.007 c0.443-1.718-0.522-3.792-0.522-3.792L77.791,27.819c0,0-0.962-1.654-2.96-1.821c-2.201-0.187-3.556,2.478-3.556,2.478 L58.146,49.148c0,0-1.16,2.06-0.061,3.919C59.276,55.088,62.563,54.5,62.563,54.5z M48.363,67.381 c-2.078-1.068-4.564,1.143-4.564,1.143L27.59,86.38c0,0-2.022,2.729-1.508,4.407c0.484,1.572,1.287,2.352,2.422,2.902l16.277,5.142 c0,0,1.974,0.411,3.468-0.023c2.122-0.615,1.731-3.94,1.731-3.94l0.368-24.175C50.347,70.693,50.264,68.365,48.363,67.381z M86.353,70.1l-23.287-7.484c0,0-2.281-0.605-3.801,0.93c-1.653,1.667-0.256,4.701-0.256,4.701l12.441,20.789 c0,0,2.043,2.74,3.813,2.74c1.778,0,3.534-1.461,3.534-1.461l9.836-14.068c0,0,0.992-1.776,1.014-3.329 C89.684,70.706,86.353,70.1,86.353,70.1z"></path>
</svg>

