<?xml version="1.0" encoding="utf-8"?>
<!-- Generate more at customizr.net -->
<!DOCTYPE svg PUBLIC "-//W3C//DTD SVG 1.1//EN" "http://www.w3.org/Graphics/SVG/1.1/DTD/svg11.dtd">
<svg id="youtube" class="custom-icon" version="1.1" xmlns="http://www.w3.org/2000/svg" xmlns:xlink="http://www.w3.org/1999/xlink" viewBox="0 0 100 100" style="height: 100px; width: 100px;"><circle class="outer-shape" cx="50" cy="50" r="48" style="opacity: 1; fill: rgb(46, 139, 87);"></circle>
	<path class="inner-shape" style="opacity: 1; fill: rgb(247, 247, 247);" transform="translate(25,25) scale(0.5)" d="M97.284,26.359c-1-5.352-5.456-9.346-10.574-9.839c-12.221-0.784-24.488-1.42-36.731-1.428 c-12.244-0.007-24.464,0.616-36.687,1.388c-5.137,0.497-9.592,4.47-10.589,9.842C1.567,34.058,1,41.869,1,49.678 s0.568,15.619,1.703,23.355c0.996,5.372,5.451,9.822,10.589,10.314c12.226,0.773,24.439,1.561,36.687,1.561 c12.239,0,24.515-0.688,36.731-1.479c5.118-0.497,9.574-5.079,10.574-10.428C98.43,65.278,99,57.477,99,49.676 C99,41.88,98.428,34.083,97.284,26.359z M38.89,63.747V35.272l26.52,14.238L38.89,63.747z"></path>
</svg>

