<svg id="Layer_1" data-name="Layer 1" xmlns="http://www.w3.org/2000/svg" viewBox="0 0 1000 1500"><defs><style>.cls-1{fill:#ffde16;}</style></defs><path id="Sunrise-Logo_Primary" class="cls-1" d="M187.91,271.56v705L499.8,1288.44,812.09,976.15V271.56ZM687.82,439.28A187.77,187.77,0,0,0,626.5,322.73H763V439.28Zm75.54,435.34L585.89,564.36,763.36,707.71ZM236.64,706.5,415.33,563.14,236.64,875Zm240-152.29-.81,641.64L242.33,962.34Zm48.73,2,231.88,406.1L524.57,1195Zm-164.47-117c13.4-76.75,86.5-127.92,163.25-114.52A140.75,140.75,0,0,1,638.68,439.28Zm-124.27,0V322.73H373.09a187.86,187.86,0,0,0-61.32,116.55ZM310.15,488H430.76L236.64,644V488ZM763.36,645.18,568.83,488H763Z"/></svg>